<svg width="113" height="33" viewBox="0 0 113 33" fill="none" xmlns="http://www.w3.org/2000/svg">
<circle cx="17.2791" cy="16.2791" r="14.2791" stroke="#FFE06F" stroke-width="4"/>
<path d="M26 7L6 16.0141L16.7042 17.4225L18.3944 25.8732L26 7Z" stroke="#FFE06F" stroke-width="3"/>
<path d="M45.3802 22.03C44.7269 22.03 44.1155 21.8946 43.5462 21.624C42.9769 21.3533 42.4775 20.98 42.0482 20.504C41.6282 20.028 41.2969 19.4866 41.0542 18.88C40.8209 18.2733 40.7042 17.6293 40.7042 16.948C40.7042 16.2666 40.8209 15.6273 41.0542 15.03C41.2969 14.4326 41.6282 13.9006 42.0482 13.434C42.4775 12.9673 42.9769 12.6033 43.5462 12.342C44.1249 12.0806 44.7549 11.95 45.4362 11.95C46.3789 11.95 47.1722 12.1506 47.8162 12.552C48.4695 12.944 48.9595 13.4666 49.2862 14.12L48.0822 14.988C47.8209 14.4466 47.4475 14.0406 46.9622 13.77C46.4862 13.4993 45.9635 13.364 45.3942 13.364C44.9275 13.364 44.5029 13.462 44.1202 13.658C43.7375 13.854 43.4062 14.1246 43.1262 14.47C42.8555 14.806 42.6502 15.1933 42.5102 15.632C42.3702 16.0613 42.3002 16.514 42.3002 16.99C42.3002 17.494 42.3795 17.9653 42.5382 18.404C42.6969 18.8426 42.9209 19.23 43.2102 19.566C43.4995 19.8926 43.8402 20.1493 44.2322 20.336C44.6242 20.5226 45.0489 20.616 45.5062 20.616C46.0475 20.616 46.5609 20.4806 47.0462 20.21C47.5409 19.93 48.0029 19.5146 48.4322 18.964V20.56C47.5642 21.54 46.5469 22.03 45.3802 22.03ZM48.2782 18.096H46.1922V16.934H49.5942V21.96H48.2782V18.096ZM51.1167 19.118V14.638H52.6567V18.81C52.6567 19.4633 52.7734 19.958 53.0067 20.294C53.2494 20.6206 53.5994 20.784 54.0567 20.784C54.346 20.784 54.626 20.7233 54.8967 20.602C55.1767 20.4806 55.4287 20.3033 55.6527 20.07C55.886 19.8273 56.0727 19.538 56.2127 19.202V14.638H57.7527V20.224C57.7527 20.4013 57.7854 20.5273 57.8507 20.602C57.916 20.6766 58.0234 20.7186 58.1727 20.728V21.96C58.014 21.988 57.8834 22.0066 57.7807 22.016C57.678 22.0253 57.58 22.03 57.4867 22.03C57.2067 22.03 56.9734 21.9553 56.7867 21.806C56.6 21.6473 56.4927 21.4466 56.4647 21.204L56.4367 20.476C56.11 21.008 55.6854 21.414 55.1627 21.694C54.64 21.9646 54.066 22.1 53.4407 22.1C52.6754 22.1 52.0967 21.848 51.7047 21.344C51.3127 20.84 51.1167 20.098 51.1167 19.118ZM59.7179 21.96V14.638H61.2579V21.96H59.7179ZM59.7179 13.434V11.74H61.2579V13.434H59.7179ZM62.6466 18.306C62.6466 17.606 62.7866 16.9713 63.0666 16.402C63.3559 15.8233 63.7479 15.366 64.2426 15.03C64.7372 14.6846 65.3066 14.512 65.9506 14.512C66.5106 14.512 67.0146 14.6566 67.4626 14.946C67.9199 15.2353 68.2746 15.5946 68.5266 16.024V11.74H70.0666V20.224C70.0666 20.4013 70.0992 20.5273 70.1646 20.602C70.2299 20.6766 70.3372 20.7186 70.4866 20.728V21.96C70.1972 22.0066 69.9732 22.03 69.8146 22.03C69.5252 22.03 69.2779 21.946 69.0726 21.778C68.8766 21.61 68.7739 21.4093 68.7646 21.176L68.7506 20.63C68.4706 21.0966 68.0926 21.4606 67.6166 21.722C67.1406 21.974 66.6459 22.1 66.1326 22.1C65.6286 22.1 65.1619 22.002 64.7326 21.806C64.3126 21.61 63.9439 21.3346 63.6266 20.98C63.3186 20.6253 63.0759 20.2193 62.8986 19.762C62.7306 19.3046 62.6466 18.8193 62.6466 18.306ZM68.5266 19.328V17.41C68.4239 17.1113 68.2559 16.8453 68.0226 16.612C67.7986 16.3693 67.5419 16.178 67.2526 16.038C66.9726 15.898 66.6926 15.828 66.4126 15.828C66.0859 15.828 65.7872 15.898 65.5166 16.038C65.2552 16.178 65.0266 16.3646 64.8306 16.598C64.6439 16.8313 64.4992 17.0973 64.3966 17.396C64.2939 17.6946 64.2426 18.0073 64.2426 18.334C64.2426 18.67 64.2986 18.9873 64.4106 19.286C64.5226 19.5753 64.6812 19.8366 64.8866 20.07C65.1012 20.294 65.3439 20.4713 65.6146 20.602C65.8946 20.7233 66.1979 20.784 66.5246 20.784C66.7299 20.784 66.9352 20.7466 67.1406 20.672C67.3552 20.5973 67.5559 20.4946 67.7426 20.364C67.9386 20.2333 68.1019 20.0793 68.2326 19.902C68.3726 19.7246 68.4706 19.5333 68.5266 19.328ZM71.4906 19.818C71.4906 19.3513 71.6213 18.9453 71.8826 18.6C72.1533 18.2453 72.522 17.9746 72.9886 17.788C73.4553 17.592 73.9966 17.494 74.6126 17.494C74.9393 17.494 75.2706 17.5173 75.6066 17.564C75.952 17.6106 76.2553 17.6853 76.5166 17.788V17.326C76.5166 16.8126 76.3626 16.4113 76.0546 16.122C75.7466 15.8326 75.3033 15.688 74.7246 15.688C74.314 15.688 73.9266 15.7626 73.5626 15.912C73.1986 16.052 72.8113 16.2526 72.4006 16.514L71.8826 15.478C72.368 15.1513 72.8533 14.9086 73.3386 14.75C73.8333 14.5913 74.3513 14.512 74.8926 14.512C75.8726 14.512 76.6426 14.7733 77.2026 15.296C77.772 15.8093 78.0566 16.542 78.0566 17.494V20.224C78.0566 20.4013 78.0846 20.5273 78.1406 20.602C78.206 20.6766 78.3133 20.7186 78.4626 20.728V21.96C78.3226 21.988 78.1966 22.0066 78.0846 22.016C77.9726 22.0253 77.8793 22.03 77.8046 22.03C77.478 22.03 77.2306 21.9506 77.0626 21.792C76.8946 21.6333 76.7966 21.4466 76.7686 21.232L76.7266 20.812C76.4093 21.2226 76.0033 21.54 75.5086 21.764C75.014 21.988 74.5146 22.1 74.0106 22.1C73.5253 22.1 73.0913 22.002 72.7086 21.806C72.326 21.6006 72.0273 21.3253 71.8126 20.98C71.598 20.6346 71.4906 20.2473 71.4906 19.818ZM76.1526 20.266C76.2646 20.1446 76.3533 20.0233 76.4186 19.902C76.484 19.7806 76.5166 19.6733 76.5166 19.58V18.74C76.2553 18.6373 75.98 18.5626 75.6906 18.516C75.4013 18.46 75.1166 18.432 74.8366 18.432C74.2766 18.432 73.8193 18.544 73.4646 18.768C73.1193 18.992 72.9466 19.3 72.9466 19.692C72.9466 19.9066 73.0026 20.112 73.1146 20.308C73.236 20.504 73.404 20.6626 73.6186 20.784C73.8426 20.9053 74.118 20.966 74.4446 20.966C74.7806 20.966 75.1026 20.9006 75.4106 20.77C75.7186 20.6393 75.966 20.4713 76.1526 20.266ZM86.491 21.96H84.951V17.858C84.951 17.1766 84.839 16.6773 84.615 16.36C84.4003 16.0426 84.0783 15.884 83.649 15.884C83.3503 15.884 83.0516 15.9586 82.753 16.108C82.4636 16.2573 82.2023 16.4626 81.969 16.724C81.7356 16.976 81.5676 17.27 81.465 17.606V21.96H79.925V14.638H81.325V16.108C81.5116 15.7813 81.7543 15.5013 82.053 15.268C82.361 15.0253 82.7063 14.8386 83.089 14.708C83.4716 14.5773 83.8776 14.512 84.307 14.512C84.7456 14.512 85.105 14.5913 85.385 14.75C85.6743 14.9086 85.8983 15.128 86.057 15.408C86.225 15.6786 86.337 15.996 86.393 16.36C86.4583 16.7146 86.491 17.0926 86.491 17.494V21.96ZM91.5965 22.1C91.0272 22.1 90.5092 22.002 90.0425 21.806C89.5852 21.6006 89.1885 21.3206 88.8525 20.966C88.5165 20.6113 88.2552 20.2053 88.0685 19.748C87.8912 19.2906 87.8025 18.8053 87.8025 18.292C87.8025 17.6013 87.9565 16.9713 88.2645 16.402C88.5818 15.8326 89.0205 15.3753 89.5805 15.03C90.1498 14.6846 90.8218 14.512 91.5965 14.512C92.3432 14.512 92.9918 14.68 93.5425 15.016C94.1025 15.3426 94.5132 15.7813 94.7745 16.332L93.2765 16.808C93.1085 16.5 92.8705 16.262 92.5625 16.094C92.2638 15.9166 91.9325 15.828 91.5685 15.828C91.1578 15.828 90.7845 15.9353 90.4485 16.15C90.1218 16.3553 89.8605 16.6446 89.6645 17.018C89.4778 17.382 89.3845 17.8066 89.3845 18.292C89.3845 18.7586 89.4825 19.1833 89.6785 19.566C89.8745 19.9393 90.1358 20.238 90.4625 20.462C90.7985 20.6766 91.1718 20.784 91.5825 20.784C91.8345 20.784 92.0772 20.742 92.3105 20.658C92.5532 20.5646 92.7632 20.4433 92.9405 20.294C93.1178 20.1353 93.2438 19.9626 93.3185 19.776L94.8305 20.224C94.6718 20.588 94.4338 20.91 94.1165 21.19C93.8085 21.47 93.4398 21.694 93.0105 21.862C92.5905 22.0206 92.1192 22.1 91.5965 22.1ZM99.3484 22.1C98.7791 22.1 98.2611 22.002 97.7944 21.806C97.3371 21.6006 96.9404 21.3253 96.6044 20.98C96.2684 20.6253 96.0071 20.224 95.8204 19.776C95.6431 19.3186 95.5544 18.8333 95.5544 18.32C95.5544 17.6293 95.7131 16.9993 96.0304 16.43C96.3478 15.8513 96.7911 15.3893 97.3604 15.044C97.9298 14.6893 98.5971 14.512 99.3624 14.512C100.128 14.512 100.786 14.6893 101.336 15.044C101.896 15.3893 102.33 15.8466 102.638 16.416C102.946 16.9853 103.1 17.5966 103.1 18.25C103.1 18.362 103.096 18.4693 103.086 18.572C103.077 18.6653 103.068 18.7446 103.058 18.81H97.1924C97.2204 19.2393 97.3371 19.6173 97.5424 19.944C97.7571 20.2613 98.0278 20.5133 98.3544 20.7C98.6811 20.8773 99.0311 20.966 99.4044 20.966C99.8151 20.966 100.202 20.8633 100.566 20.658C100.94 20.4526 101.192 20.182 101.322 19.846L102.638 20.224C102.48 20.5786 102.237 20.9006 101.91 21.19C101.593 21.47 101.215 21.694 100.776 21.862C100.338 22.0206 99.8618 22.1 99.3484 22.1ZM97.1504 17.788H101.574C101.546 17.368 101.425 16.9993 101.21 16.682C101.005 16.3553 100.739 16.1033 100.412 15.926C100.095 15.7393 99.7404 15.646 99.3484 15.646C98.9658 15.646 98.6111 15.7393 98.2844 15.926C97.9671 16.1033 97.7058 16.3553 97.5004 16.682C97.2951 16.9993 97.1784 17.368 97.1504 17.788Z" fill="#FFE06F"/>
</svg>
